<svg height="512pt" viewBox="-9 0 512 512.00004" width="512pt" xmlns="http://www.w3.org/2000/svg"><g fill="#ffd993"><path d="m359.246094 60.660156c1.058594-3.183594 1.890625-6.539062 2.4375-10.039062 3.902344-24.953125-7.667969-47.480469-25.84375-50.324219-18.171875-2.84375-36.070313 15.082031-39.972656 40.03125-2.171876 13.90625.460937 27.050781 6.363281 36.464844 3.785156 7.691406 13.121093 29.316406 4.949219 62.421875l35.050781-8.507813zm0 0"/><path d="m373.746094 141.945312-35.050782-12.304687 28.859376-82.234375c3.398437-9.679688 14-14.773438 23.679687-11.375 9.679687 3.394531 14.773437 13.996094 11.375 23.675781zm0 0"/><path d="m405.335938 164.125-35.054688-12.304688 28.863281-82.234374c3.394531-9.679688 13.996094-14.773438 23.675781-11.375 9.679688 3.398437 14.773438 14 11.378907 23.679687zm0 0"/><path d="m436.421875 187.730469-35.054687-12.304688 28.863281-82.234375c3.398437-9.679687 14-14.773437 23.679687-11.375 9.679688 3.394532 14.773438 14 11.375 23.679688zm0 0"/><path d="m451.699219 200.042969-27.296875-19.339844c-.832032-.589844-1.027344-1.746094-.4375-2.578125l37.75-53.28125c5.933594-8.371094 17.527344-10.347656 25.894531-4.417969 8.371094 5.929688 10.351563 17.523438 4.417969 25.894531l-37.75 53.28125c-.589844.832032-1.746094 1.027344-2.578125.441407zm0 0"/></g><path d="m478.519531 190.734375c-.25.699219-17.386719 48.769531-98.609375 280.972656-1.765625 5.03125-4.132812 9.683594-7.003906 13.898438-11.21875 16.542969-30.023438 26.394531-49.832031 26.394531-6.617188 0-13.347657-1.097656-19.945313-3.414062-31.378906-11.007813-47.898437-45.386719-36.878906-76.765626 11.324219-44.074218 53.046875-105.667968 32.078125-218.886718-.082031-3.738282-12.730469-44.199219 8.296875-93.195313 5.46875-12.722656 17.617188-21.320312 31.414062-22.375 2.210938-.167969 4.5625-.28125 7.054688-.300781 28.34375-.335938 74.398438 9.890625 126.671875 63.472656 7.796875 7.980469 10.449219 19.671875 6.753906 30.199219zm0 0" fill="#ffc14f"/><path d="m478.519531 190.734375c-.25.699219-17.386719 48.769531-98.609375 280.972656-1.765625 5.03125-4.132812 9.683594-7.003906 13.898438-3.339844.585937-6.742188.878906-10.175781.878906-6.617188 0-13.347657-1.097656-19.941407-3.414063-31.382812-11.019531-47.902343-45.394531-36.882812-76.777343 11.324219-44.070313 53.046875-105.664063 32.082031-218.886719-.085937-3.664062-12.242187-42.640625 7.105469-90.34375 28.34375-.335938 74.398438 9.890625 126.671875 63.472656 7.796875 7.980469 10.449219 19.671875 6.753906 30.199219zm0 0" fill="#ffcd71"/><path d="m136.203125 60.660156c-1.058594-3.183594-1.890625-6.539062-2.4375-10.039062-3.902344-24.953125 7.667969-47.480469 25.84375-50.324219 18.171875-2.84375 36.070313 15.082031 39.972656 40.03125 2.171875 13.90625-.460937 27.050781-6.363281 36.464844-3.785156 7.691406-13.121094 29.316406-4.949219 62.421875l-35.050781-8.507813zm0 0" fill="#ffd993"/><path d="m121.703125 141.945312 35.050781-12.304687-28.859375-82.234375c-3.398437-9.679688-14-14.773438-23.679687-11.375-9.679688 3.394531-14.773438 13.996094-11.375 23.675781zm0 0" fill="#ffd993"/><path d="m90.113281 164.125 35.054688-12.304688-28.863281-82.234374c-3.394532-9.679688-13.996094-14.773438-23.675782-11.375-9.679687 3.398437-14.773437 14-11.375 23.679687zm0 0" fill="#ffd993"/><path d="m59.027344 187.730469 35.054687-12.304688-28.863281-82.234375c-3.394531-9.679687-13.996094-14.773437-23.675781-11.375-9.679688 3.394532-14.773438 14-11.378907 23.679688zm0 0" fill="#ffd993"/><path d="m43.75 200.042969 27.296875-19.339844c.832031-.589844 1.027344-1.746094.4375-2.578125l-37.75-53.28125c-5.933594-8.371094-17.527344-10.347656-25.894531-4.417969-8.371094 5.929688-10.351563 17.523438-4.417969 25.894531l37.75 53.28125c.589844.832032 1.746094 1.027344 2.578125.441407zm0 0" fill="#ffd993"/><path d="m192.320312 508.585938c-6.597656 2.316406-13.328124 3.414062-19.945312 3.414062-24.855469 0-48.128906-15.507812-56.832031-40.292969-81.226563-232.203125-98.363281-280.273437-98.613281-280.972656-3.691407-10.527344-1.042969-22.21875 6.753906-30.199219 3.609375-3.707031 7.191406-7.191406 10.738281-10.488281 52.328125-48.644531 97.378906-54.644531 122.988281-52.683594 13.796875 1.054688 25.945313 9.652344 31.414063 22.375 21.027343 48.996094 8.378906 89.457031 8.296875 93.195313-20.964844 113.21875 20.757812 174.8125 32.078125 218.886718 1.003906 2.835938 1.777343 5.707032 2.320312 8.578126 5.59375 28.835937-10.65625 58.179687-39.199219 68.1875zm0 0" fill="#ffc14f"/><path d="m231.519531 440.398438c-6.609375 7.566406-15.207031 13.578124-25.371093 17.144531-6.605469 2.316406-13.339844 3.414062-19.953126 3.414062-24.871093 0-48.132812-15.507812-56.824218-40.292969-61.929688-177.050781-86.609375-247.042968-94.949219-270.617187 52.328125-48.644531 97.378906-54.644531 122.988281-52.683594 13.796875 1.054688 25.945313 9.652344 31.414063 22.375 21.027343 48.996094 8.378906 89.457031 8.296875 93.195313-20.964844 113.21875 20.757812 174.8125 32.078125 218.886718 1.003906 2.835938 1.777343 5.707032 2.320312 8.578126zm0 0" fill="#ffcd71"/><path d="m415.621094 314.414062-60.75 20.757813c-6.175782 2.105469-12.898438-1.179687-15.003906-7.367187l-48.726563-142.558594c-1.359375-3.976563-1.484375-8.265625-.367187-12.304688l15.351562-55.3125c.929688-3.347656 3.453125-5.675781 6.417969-6.574218 2.757812-.832032 5.886719-.449219 8.476562 1.484374l45.988281 34.34375c3.363282 2.515626 5.886719 5.980469 7.253907 9.957032l46.703125 136.640625 2.023437 5.914062c2.109375 6.179688-1.1875 12.902344-7.367187 15.019531zm0 0" fill="#4172cc"/><path d="m420.964844 293.480469-55.144532 18.847656c-6.179687 2.117187-12.898437-1.179687-15.019531-7.371094l-48.722656-142.554687c-1.359375-3.976563-1.484375-8.265625-.355469-12.304688l10.820313-39.042968c2.757812-.832032 5.886719-.449219 8.476562 1.484374l45.988281 34.34375c3.363282 2.515626 5.886719 5.980469 7.253907 9.957032zm0 0" fill="#6990d7"/><path d="m397.023438 292.203125-43.710938-127.878906c-1.398438-4.089844-5.84375-6.273438-9.9375-4.875-4.089844 1.398437-6.273438 5.847656-4.875 9.9375l43.710938 127.878906c1.109374 3.253906 4.148437 5.296875 7.40625 5.296875.835937 0 1.691406-.136719 2.53125-.421875 4.089843-1.398437 6.273437-5.847656 4.875-9.9375zm0 0" fill="#274c91"/><path d="m350.574219 266.175781c4.089843-1.398437 6.273437-5.847656 4.875-9.9375l-28.355469-82.953125c-1.394531-4.089844-5.84375-6.269531-9.9375-4.875-4.089844 1.398438-6.273438 5.847656-4.875 9.9375l28.355469 82.953125c1.109375 3.25 4.148437 5.296875 7.40625 5.296875.835937 0 1.691406-.136718 2.53125-.421875zm0 0" fill="#274c91"/><path d="m365.574219 285.863281c-1.398438-4.089843-5.847657-6.273437-9.9375-4.875-4.089844 1.398438-6.273438 5.847657-4.875 9.9375l5.230469 15.300781c1.109374 3.25 4.148437 5.296876 7.40625 5.296876.835937 0 1.691406-.136719 2.53125-.421876 4.089843-1.398437 6.273437-5.847656 4.875-9.9375zm0 0" fill="#274c91"/></svg>