<?xml version="1.0" encoding="utf-8"?>
<!-- Generator: Adobe Illustrator 16.0.0, SVG Export Plug-In . SVG Version: 6.00 Build 0)  -->
<!DOCTYPE svg PUBLIC "-//W3C//DTD SVG 1.1//EN" "http://www.w3.org/Graphics/SVG/1.1/DTD/svg11.dtd">
<svg version="1.1" id="Layer_1" xmlns="http://www.w3.org/2000/svg" xmlns:xlink="http://www.w3.org/1999/xlink" x="0px" y="0px"
	 width="20px" height="20px" viewBox="0 0 20 20" enable-background="new 0 0 20 20" xml:space="preserve">
<g>
	<path fill="#FFFFFF" d="M13.986,2.508c-3.162-3.162-8.306-3.162-11.468,0c-3.161,3.162-3.161,8.305,0,11.466
		c3.054,3.054,7.956,3.158,11.137,0.314l0.642,0.642c-0.159,0.411-0.075,0.893,0.255,1.224l3.392,3.394
		c0.446,0.445,1.171,0.445,1.615,0c0.446-0.446,0.446-1.17,0-1.615l-3.392-3.393c-0.332-0.33-0.813-0.414-1.225-0.254l-0.642-0.644
		C17.145,10.463,17.04,5.561,13.986,2.508z M3.488,13.007c-2.627-2.628-2.627-6.902,0-9.53c2.627-2.628,6.902-2.627,9.531,0
		c2.627,2.627,2.627,6.901,0,9.53C10.39,15.635,6.115,15.632,3.488,13.007z"/>
	<path fill="#FFFFFF" d="M5.088,5.018c1.148-1.147,2.481-1.98,3.885-2.5c-1.589-0.09-3.291,0.527-4.597,1.833
		c-1.323,1.324-1.94,3.055-1.828,4.664C3.063,7.572,3.911,6.197,5.088,5.018z"/>
</g>
</svg>
